<?xml version="1.0" standalone="no"?>
<!DOCTYPE svg PUBLIC "-//W3C//DTD SVG 20010904//EN"
 "http://www.w3.org/TR/2001/REC-SVG-20010904/DTD/svg10.dtd">
<svg version="1.0" xmlns="http://www.w3.org/2000/svg"
 width="285.000000pt" height="285.000000pt" viewBox="0 0 285.000000 285.000000"
 preserveAspectRatio="xMidYMid meet">
<metadata>
Created by potrace 1.11, written by Peter Selinger 2001-2013
</metadata>
<g transform="translate(0.000000,285.000000) scale(0.100000,-0.100000)"
fill="#000000" stroke="none">
<path d="M868 2603 c6 -2 18 -2 25 0 6 3 1 5 -13 5 -14 0 -19 -2 -12 -5z"/>
<path d="M1140 2566 c0 -3 9 -10 20 -16 11 -6 20 -8 20 -6 0 3 -9 10 -20 16
-11 6 -20 8 -20 6z"/>
<path d="M1355 2490 c10 -11 20 -20 23 -20 3 0 -3 9 -13 20 -10 11 -20 20 -23
20 -3 0 3 -9 13 -20z"/>
<path d="M657 2468 c-38 -50 -74 -127 -93 -193 -12 -44 -17 -113 -19 -255 l-3
-195 8 163 c15 263 39 364 114 475 31 46 26 49 -7 5z"/>
<path d="M713 2468 c-15 -20 -25 -38 -20 -38 3 0 12 11 21 25 17 26 16 35 -1
13z"/>
<path d="M1307 2400 c15 -22 29 -38 31 -35 5 4 -45 75 -53 75 -2 0 8 -18 22
-40z"/>
<path d="M651 2314 c0 -11 3 -14 6 -6 3 7 2 16 -1 19 -3 4 -6 -2 -5 -13z"/>
<path d="M772 2300 c0 -19 2 -27 5 -17 2 9 2 25 0 35 -3 9 -5 1 -5 -18z"/>
<path d="M1101 2314 c0 -11 3 -14 6 -6 3 7 2 16 -1 19 -3 4 -6 -2 -5 -13z"/>
<path d="M1214 2310 c2 -14 5 -45 5 -69 1 -60 10 -47 12 17 1 30 -3 58 -10 65
-9 9 -11 6 -7 -13z"/>
<path d="M1456 2321 c-3 -4 5 -18 18 -30 13 -12 29 -41 36 -64 8 -23 17 -46
20 -52 4 -5 13 -26 19 -46 6 -20 18 -36 26 -36 18 0 18 1 0 57 l-15 45 5 -45
c5 -41 3 -39 -24 33 -27 70 -67 147 -76 147 -2 0 -6 -4 -9 -9z"/>
<path d="M1360 2295 c0 -5 5 -17 10 -25 5 -8 10 -10 10 -5 0 6 -5 17 -10 25
-5 8 -10 11 -10 5z"/>
<path d="M1656 2277 c3 -10 9 -15 12 -12 3 3 0 11 -7 18 -10 9 -11 8 -5 -6z"/>
<path d="M1450 2265 c0 -5 5 -17 10 -25 5 -8 10 -10 10 -5 0 6 -5 17 -10 25
-5 8 -10 11 -10 5z"/>
<path d="M532 2230 c0 -14 2 -19 5 -12 2 6 2 18 0 25 -3 6 -5 1 -5 -13z"/>
<path d="M1290 2235 c0 -5 5 -17 10 -25 5 -8 10 -10 10 -5 0 6 -5 17 -10 25
-5 8 -10 11 -10 5z"/>
<path d="M1386 2215 c11 -48 25 -76 18 -35 -4 19 -10 42 -15 50 -6 10 -7 5 -3
-15z"/>
<path d="M1271 2190 c0 -8 4 -22 9 -30 12 -18 12 -2 0 25 -6 13 -9 15 -9 5z"/>
<path d="M1455 2174 c12 -18 13 -29 6 -38 -6 -7 -7 -17 -3 -21 4 -5 2 -5 -5
-1 -6 3 -15 1 -19 -6 -6 -9 -10 -5 -16 12 -4 15 -5 6 -3 -25 5 -48 5 -49 -9
-21 -7 16 -16 24 -19 19 -6 -9 39 -93 49 -93 3 0 3 10 -1 23 l-6 22 16 -21
c19 -26 55 -21 55 8 0 10 -4 17 -9 14 -12 -8 -28 14 -28 37 1 33 32 17 58 -31
66 -119 91 -163 93 -160 1 2 -1 35 -4 73 -6 64 -7 66 -9 20 -2 -59 -12 -49
-37 35 -15 50 -58 108 -75 103 -4 -1 -5 6 -2 17 3 12 -1 22 -11 26 -9 3 -16
12 -16 20 0 8 -5 14 -11 14 -7 0 -5 -10 6 -26z"/>
<path d="M764 2168 c28 -136 29 -155 13 -197 -10 -23 -17 -49 -17 -59 1 -12
29 50 30 66 0 1 4 2 10 2 5 0 12 -17 16 -37 4 -21 13 -47 21 -58 14 -19 14
-17 8 15 -4 19 -18 71 -32 115 -13 44 -27 101 -30 128 -3 26 -10 47 -15 47 -4
0 -6 -10 -4 -22z"/>
<path d="M1232 2165 c0 -16 2 -22 5 -12 2 9 2 23 0 30 -3 6 -5 -1 -5 -18z"/>
<path d="M1242 2105 c0 -16 2 -22 5 -12 2 9 2 23 0 30 -3 6 -5 -1 -5 -18z"/>
<path d="M1625 2023 c0 -57 3 -94 7 -81 9 32 9 161 0 175 -4 6 -7 -36 -7 -94z"/>
<path d="M1180 2096 c0 -9 5 -16 10 -16 6 0 10 4 10 9 0 6 -4 13 -10 16 -5 3
-10 -1 -10 -9z"/>
<path d="M1300 2105 c0 -5 5 -17 10 -25 5 -8 10 -10 10 -5 0 6 -5 17 -10 25
-5 8 -10 11 -10 5z"/>
<path d="M1327 2061 c-2 -11 4 -32 15 -48 19 -27 19 -27 12 -3 -3 14 -10 26
-14 28 -4 2 -6 12 -3 22 3 11 3 20 0 20 -2 0 -7 -9 -10 -19z"/>
<path d="M1592 2060 c0 -14 2 -19 5 -12 2 6 2 18 0 25 -3 6 -5 1 -5 -13z"/>
<path d="M1157 2033 c5 -39 4 -43 -16 -43 -12 0 -19 -4 -16 -10 3 -6 -3 -23
-14 -39 -15 -21 -17 -31 -9 -39 18 -18 26 -14 21 11 -3 14 2 29 11 36 14 12
16 10 16 -15 0 -16 5 -36 11 -44 8 -12 9 -10 4 8 -6 21 -5 23 13 13 16 -9 24
-7 36 5 20 20 20 22 -1 20 -12 0 -18 6 -18 19 -1 11 -5 27 -10 35 -6 8 -15 31
-22 50 l-11 35 5 -42z"/>
<path d="M1184 2035 c1 -35 4 -40 26 -43 14 -2 29 -8 35 -13 14 -14 25 -11 25
6 0 8 -5 14 -11 13 -6 -2 -20 14 -31 35 -11 21 -23 36 -26 33 -2 -3 3 -17 12
-31 16 -24 16 -25 -3 -25 -15 0 -21 8 -24 33 -4 26 -4 24 -3 -8z"/>
<path d="M1251 2054 c0 -11 3 -14 6 -6 3 7 2 16 -1 19 -3 4 -6 -2 -5 -13z"/>
<path d="M590 1963 c0 -33 -3 -82 -6 -109 -4 -27 -4 -46 0 -43 11 10 25 193
15 204 -5 5 -9 -15 -9 -52z"/>
<path d="M1686 1990 c4 -8 16 -49 25 -90 10 -41 18 -66 18 -55 1 34 -26 136
-39 148 -10 9 -11 9 -4 -3z"/>
<path d="M1025 1940 c10 -11 20 -20 23 -20 3 0 -3 9 -13 20 -10 11 -20 20 -23
20 -3 0 3 -9 13 -20z"/>
<path d="M802 1895 c-1 -27 -5 -61 -7 -75 l-6 -25 11 25 c6 13 9 47 7 75 l-3
50 -2 -50z"/>
<path d="M860 1936 c0 -5 14 -34 31 -64 17 -30 28 -63 26 -73 -3 -11 -1 -19 5
-19 5 0 20 -13 34 -29 14 -16 34 -29 44 -28 27 2 25 15 -3 28 -23 10 -72 76
-114 154 -12 22 -22 36 -23 31z"/>
<path d="M1084 1869 c19 -23 45 -48 58 -57 13 -9 -2 10 -32 41 -64 67 -76 74
-26 16z"/>
<path d="M748 1850 c-4 -25 -10 -58 -13 -75 -3 -17 2 -11 10 15 9 25 14 59 13
75 -3 25 -4 23 -10 -15z"/>
<path d="M856 1835 c8 -37 14 -45 14 -19 0 10 -5 26 -10 34 -8 11 -9 7 -4 -15z"/>
<path d="M565 1780 c-4 -12 -5 -24 -2 -27 3 -2 8 5 12 17 4 12 5 24 2 27 -3 2
-8 -5 -12 -17z"/>
<path d="M894 1712 c14 -28 31 -52 37 -52 6 0 1 12 -10 26 -12 15 -21 32 -21
39 0 7 -7 19 -16 26 -11 9 -8 -3 10 -39z"/>
<path d="M1050 1754 c0 -7 27 -34 34 -34 4 0 1 9 -6 20 -12 19 -28 27 -28 14z"/>
<path d="M593 1690 c0 -30 2 -43 4 -27 2 15 2 39 0 55 -2 15 -4 2 -4 -28z"/>
<path d="M722 1700 c0 -19 2 -27 5 -17 2 9 2 25 0 35 -3 9 -5 1 -5 -18z"/>
<path d="M502 1579 c-31 -28 -32 -30 -17 -53 21 -32 65 -49 171 -66 44 -7 60
-7 66 3 12 19 10 23 -17 35 -34 16 -40 15 -25 -3 7 -9 11 -17 9 -19 -7 -6
-129 12 -157 23 -15 6 -33 20 -39 31 -11 16 -8 22 19 45 17 14 29 28 27 30 -2
2 -19 -10 -37 -26z"/>
<path d="M640 1546 c0 -2 8 -10 18 -17 15 -13 16 -12 3 4 -13 16 -21 21 -21
13z"/>
<path d="M1315 1433 c-17 -3 -46 -21 -68 -44 -22 -22 -51 -42 -66 -46 -32 -7
-121 -53 -121 -62 -1 -3 -10 -17 -20 -30 -16 -18 -23 -21 -34 -12 -22 18 -45
3 -44 -31 1 -20 -7 -38 -25 -54 -15 -14 -27 -31 -27 -39 0 -7 -11 -27 -25 -43
-19 -22 -25 -43 -27 -85 -1 -31 -5 -54 -9 -51 -12 7 -16 -45 -5 -57 8 -9 6
-10 -8 -5 -16 6 -18 3 -12 -24 4 -22 1 -32 -9 -36 -9 -4 -15 -19 -15 -38 0
-19 -9 -42 -21 -54 -11 -12 -17 -27 -13 -33 4 -6 1 -15 -6 -19 -7 -4 -15 -37
-17 -77 -8 -103 26 -161 106 -182 24 -7 24 -10 28 -117 5 -152 5 -148 -7 -152
-5 -2 -10 -10 -10 -19 0 -9 -6 -12 -17 -9 -10 3 -47 10 -83 16 -183 29 -346
-8 -384 -86 -9 -19 -16 -37 -16 -39 0 -3 394 -5 875 -5 l875 0 -6 28 c-4 15
-13 44 -21 66 -7 21 -13 52 -13 67 0 25 -22 116 -45 190 -5 15 4 23 50 44 43
19 61 22 76 15 13 -8 25 -7 39 0 25 13 25 16 -4 76 -13 27 -32 76 -42 109 -10
33 -23 67 -30 75 -6 8 -14 24 -18 35 -5 18 -2 20 47 17 44 -3 62 2 117 31 36
19 70 33 76 30 6 -2 17 3 24 12 17 21 25 19 39 -11 13 -30 33 -27 42 7 7 23 7
23 8 2 1 -23 1 -23 21 -3 22 22 45 26 55 10 7 -12 36 -14 34 -2 -1 4 -1 18 0
31 1 20 3 22 16 11 13 -11 20 -8 42 18 14 18 34 32 44 32 22 0 26 17 5 22 -12
2 -11 10 5 46 20 42 20 43 0 67 -10 14 -17 33 -14 43 2 10 -3 31 -11 47 -9 17
-16 38 -16 47 0 17 -37 44 -46 35 -3 -3 -16 6 -30 20 -13 13 -28 21 -34 18 -5
-3 -15 3 -21 14 -7 10 -18 17 -25 14 -6 -2 -15 0 -18 5 -7 12 -46 4 -46 -9 0
-5 -18 -9 -40 -9 -22 0 -40 -4 -40 -9 0 -5 -9 -13 -20 -16 -11 -3 -20 -13 -20
-21 0 -8 -9 -23 -21 -35 -11 -11 -18 -27 -15 -35 3 -8 2 -12 -4 -9 -5 3 -21 3
-35 -1 -22 -5 -26 -11 -22 -31 3 -16 -1 -27 -13 -33 -29 -16 -150 10 -150 31
0 20 -42 49 -70 49 -16 0 -30 5 -30 10 0 6 -7 10 -15 10 -20 0 -71 26 -94 48
-50 47 -103 87 -116 87 -8 0 -23 7 -32 15 -77 64 -112 90 -125 90 -9 0 -21 7
-28 15 -11 14 -16 14 -38 -1 -18 -12 -27 -13 -30 -6 -2 7 -13 10 -28 6 -15 -4
-24 -2 -24 6 0 7 -7 9 -15 6 -8 -3 -23 -9 -32 -13 -12 -5 -15 -2 -10 10 3 9 5
16 4 16 -1 -1 -15 -4 -32 -6z m95 -58 c14 -8 24 -19 22 -25 -1 -7 2 -9 8 -5 5
3 10 1 10 -6 0 -7 3 -10 6 -6 4 3 13 0 21 -8 8 -8 20 -18 28 -22 8 -5 15 -27
17 -51 3 -39 9 -47 31 -43 5 1 6 -3 2 -9 -3 -5 -16 -10 -28 -10 -25 0 -92 38
-83 47 10 11 -102 83 -130 83 -26 0 -26 2 -21 41 3 23 11 45 17 49 12 7 47 -5
100 -35z m920 -159 c0 -3 -4 -8 -10 -11 -5 -3 -10 -1 -10 4 0 6 5 11 10 11 6
0 10 -2 10 -4z m52 -21 c-2 -14 -8 -28 -13 -31 -5 -3 -7 2 -4 10 3 9 7 23 10
31 7 24 13 17 7 -10z m-32 -6 c0 -31 -22 -49 -58 -48 -21 1 -29 3 -18 6 11 3
28 16 39 29 19 25 37 31 37 13z m95 0 c11 -17 -1 -21 -15 -4 -8 9 -8 15 -2 15
6 0 14 -5 17 -11z m-45 -39 c0 -5 -5 -10 -11 -10 -5 0 -7 5 -4 10 3 6 8 10 11
10 2 0 4 -4 4 -10z m140 -15 c-27 -29 -39 -32 -36 -9 3 18 24 34 45 34 10 0 7
-8 -9 -25z m-875 5 c17 -7 16 -9 -10 -9 -16 0 -37 4 -45 9 -12 8 -10 10 10 9
14 0 34 -4 45 -9z m956 -41 c-9 -22 -10 -22 -10 -3 -1 11 2 24 6 27 12 12 14
0 4 -24z m-966 1 c-7 -11 35 -31 49 -22 5 3 6 1 3 -5 -10 -17 -81 0 -85 20 -2
12 3 17 18 17 12 0 18 -5 15 -10z m78 3 c-7 -2 -21 -2 -30 0 -10 3 -4 5 12 5
17 0 24 -2 18 -5z m884 -52 c6 -9 10 -17 9 -18 -5 -6 -76 19 -76 26 0 26 46
21 67 -8z m-770 2 c-4 -3 8 -15 26 -26 l32 -20 -27 -8 c-14 -4 -32 -10 -40
-14 -10 -6 -11 -5 0 6 6 7 12 18 12 24 0 5 -4 4 -8 -3 -5 -7 -16 -10 -26 -6
-14 5 -15 9 -4 15 9 6 6 9 -12 9 -22 1 -21 3 10 14 45 17 45 17 37 9z m820
-55 c-3 -8 -6 -5 -6 6 -1 11 2 17 5 13 3 -3 4 -12 1 -19z m-23 -28 c7 -7 0
-10 -22 -10 -21 0 -35 6 -42 19 -9 18 -8 19 22 10 17 -5 36 -13 42 -19z m-720
12 c-6 -4 -13 -15 -17 -24 -3 -10 -14 -18 -24 -18 -15 0 -15 2 -4 9 11 7 9 10
-10 13 -22 4 -21 5 11 15 42 13 59 15 44 5z m40 -4 c-5 -7 -2 -9 9 -5 12 4 14
2 10 -10 -5 -12 -3 -14 8 -8 10 6 11 5 3 -4 -12 -13 -47 -4 -38 10 3 5 0 9 -5
9 -6 0 -11 -5 -11 -12 0 -6 -3 -8 -7 -4 -5 4 1 14 11 22 24 17 30 18 20 2z
m572 -65 l-6 -38 21 28 c17 22 24 25 35 16 11 -9 15 -8 20 5 7 17 24 22 24 7
0 -5 -15 -18 -32 -30 -18 -11 -42 -27 -53 -35 -20 -15 -21 -14 -19 12 2 59 4
72 10 72 3 0 3 -17 0 -37z m-866 -33 c-24 -34 -27 -62 -5 -54 17 7 18 1 9 -46
-5 -22 -9 -28 -15 -18 -6 9 -9 6 -9 -11 0 -20 -3 -22 -12 -13 -14 14 -39 124
-26 116 11 -7 50 21 41 29 -3 4 -1 7 7 7 10 0 10 3 1 14 -10 12 -8 13 8 9 l21
-5 -20 -28z m430 25 c-7 -8 -20 -15 -29 -15 -13 1 -13 3 3 15 26 19 42 19 26
0z m-400 -45 c-6 -11 -13 -20 -16 -20 -2 0 0 9 6 20 6 11 13 20 16 20 2 0 0
-9 -6 -20z m797 -22 c-3 -8 -6 -5 -6 6 -1 11 2 17 5 13 3 -3 4 -12 1 -19z
m-42 2 c-3 -5 -12 -10 -18 -10 -7 0 -6 4 3 10 19 12 23 12 15 0z m95 -22 c0
-4 -4 -8 -9 -8 -6 0 -12 4 -15 8 -3 5 1 9 9 9 8 0 15 -4 15 -9z m-957 -83 c4
-34 3 -42 -3 -25 -4 14 -9 18 -9 10 -1 -10 -7 -6 -16 10 -17 30 -19 44 -5 35
6 -3 13 1 16 10 9 22 11 18 17 -40z m-372 20 c38 -28 59 -53 59 -70 0 -17
-130 3 -153 23 -17 15 -16 17 10 44 33 34 40 35 84 3z m783 -4 c51 -22 77 -66
80 -135 1 -38 -1 -40 -50 -62 l-51 -22 -21 107 c-31 150 -33 144 42 112z
m-894 -125 c0 -2 -8 -10 -17 -17 -16 -13 -17 -12 -4 4 13 16 21 21 21 13z
m-34 -61 c-9 -9 -16 -13 -16 -8 0 12 22 34 28 28 2 -2 -3 -11 -12 -20z m181
-8 c3 -4 -14 -7 -38 -7 -24 0 -39 4 -32 8 14 9 60 8 70 -1z m287 -103 c-20
-29 -19 -29 -19 -1 0 15 6 24 17 24 16 2 16 0 2 -23z m96 5 c25 -9 25 -9 -2
-5 -31 4 -40 -20 -10 -27 9 -2 3 -4 -15 -4 -28 0 -31 2 -22 19 6 12 6 18 -1
18 -5 0 -10 -5 -10 -12 0 -6 -3 -9 -6 -5 -10 10 6 27 24 26 9 -1 28 -5 42 -10z
m57 -15 c-3 -3 -12 -4 -19 -1 -8 3 -5 6 6 6 11 1 17 -2 13 -5z m-202 -34 c13
-6 15 -9 5 -9 -8 0 -22 4 -30 9 -18 12 -2 12 25 0z m-201 -32 c-68 -82 -152
-142 -301 -217 -73 -36 -76 -37 -68 -12 3 11 1 22 -5 26 -6 4 -10 50 -10 113
l0 107 202 3 202 3 -20 -23z m423 8 c16 -15 -10 -35 -49 -38 -68 -5 -148 3
-148 14 0 6 15 8 38 5 20 -3 46 -1 57 3 14 6 15 9 5 10 -103 11 -100 23 3 17
49 -3 91 -8 94 -11z m23 -96 c0 -5 -6 -7 -13 -4 -8 3 -20 -3 -28 -12 -12 -16
-12 -17 4 -11 20 7 21 3 7 -24 -11 -20 -50 -27 -50 -9 0 6 -4 10 -10 10 -17 0
-11 -21 15 -52 27 -32 32 -58 13 -59 -7 0 -4 -4 7 -8 19 -8 19 -8 0 -18 -11
-6 -55 -13 -97 -17 -43 -4 -90 -11 -105 -16 -15 -4 -49 -10 -75 -13 l-48 -5 0
42 c0 26 -3 36 -9 28 -4 -7 -6 -24 -4 -37 6 -29 -14 -36 -81 -30 -43 3 -79 15
-47 15 7 0 9 4 6 10 -3 5 1 10 10 10 9 0 31 11 49 25 35 26 52 32 40 14 -4 -8
0 -8 15 0 12 7 26 9 31 6 6 -3 10 -1 10 5 0 6 4 9 9 6 10 -6 107 39 127 59 16
16 19 29 4 20 -5 -3 -10 -1 -10 4 0 6 -8 11 -18 11 -62 0 -4 47 64 53 104 8
184 7 184 -3z"/>
<path d="M1355 1380 c3 -5 8 -10 11 -10 2 0 4 5 4 10 0 6 -5 10 -11 10 -5 0
-7 -4 -4 -10z"/>
<path d="M2563 749 c-150 -60 -284 -110 -298 -111 -24 -2 -26 -5 -20 -38 4
-19 15 -51 25 -72 12 -26 14 -39 6 -42 -6 -3 -5 -5 3 -5 8 -1 24 7 35 18 20
18 210 101 431 189 l100 40 3 66 c2 36 -1 66 -5 65 -4 0 -130 -49 -280 -110z"/>
<path d="M2843 480 c0 -25 2 -35 4 -22 2 12 2 32 0 45 -2 12 -4 2 -4 -23z"/>
</g>
</svg>
